<svg width="2640" height="1980" viewBox="0 0 2640 1980" fill="none" xmlns="http://www.w3.org/2000/svg">
<rect width="2640" height="1980" fill="white"/>
<path d="M1065.99 1336.18C1059.39 1336.18 1053.78 1334.98 1049.17 1332.6C1044.55 1330.21 1040.42 1326.71 1036.76 1322.1L1046.06 1312.79C1048.37 1316.13 1051.12 1318.76 1054.3 1320.67C1057.48 1322.5 1061.54 1323.41 1066.47 1323.41C1071.08 1323.41 1074.74 1322.46 1077.44 1320.55C1080.23 1318.64 1081.62 1316.01 1081.62 1312.67C1081.62 1309.89 1080.9 1307.62 1079.47 1305.87C1078.04 1304.12 1076.13 1302.69 1073.75 1301.58C1071.44 1300.38 1068.85 1299.35 1065.99 1298.47C1063.21 1297.52 1060.38 1296.49 1057.52 1295.37C1054.74 1294.18 1052.15 1292.71 1049.76 1290.96C1047.46 1289.21 1045.59 1286.94 1044.16 1284.16C1042.72 1281.37 1042.01 1277.83 1042.01 1273.54C1042.01 1268.61 1043.2 1264.43 1045.59 1261.01C1048.05 1257.51 1051.35 1254.85 1055.49 1253.02C1059.63 1251.19 1064.24 1250.27 1069.33 1250.27C1074.82 1250.27 1079.71 1251.35 1084.01 1253.49C1088.38 1255.64 1091.92 1258.39 1094.63 1261.73L1085.32 1271.03C1082.93 1268.33 1080.43 1266.34 1077.8 1265.07C1075.26 1263.72 1072.31 1263.04 1068.97 1263.04C1064.84 1263.04 1061.58 1263.87 1059.19 1265.54C1056.88 1267.22 1055.73 1269.56 1055.73 1272.58C1055.73 1275.13 1056.45 1277.2 1057.88 1278.79C1059.31 1280.3 1061.18 1281.61 1063.48 1282.73C1065.87 1283.76 1068.46 1284.75 1071.24 1285.71C1074.1 1286.66 1076.93 1287.74 1079.71 1288.93C1082.57 1290.12 1085.16 1291.67 1087.47 1293.58C1089.85 1295.41 1091.76 1297.8 1093.19 1300.74C1094.63 1303.68 1095.34 1307.38 1095.34 1311.84C1095.34 1319.31 1092.68 1325.24 1087.35 1329.62C1082.1 1333.99 1074.98 1336.18 1065.99 1336.18ZM1115.94 1334.98V1253.85H1129.07V1334.98H1115.94ZM1102.22 1289.65V1277.71H1142.79V1289.65H1102.22ZM1175.83 1336.18C1170.98 1336.18 1166.64 1335.1 1162.82 1332.96C1159.08 1330.81 1156.14 1327.87 1153.99 1324.13C1151.93 1320.31 1150.89 1315.93 1150.89 1311V1277.71H1164.02V1310.41C1164.02 1313.19 1164.45 1315.58 1165.33 1317.56C1166.28 1319.47 1167.64 1320.95 1169.39 1321.98C1171.21 1323.01 1173.36 1323.53 1175.83 1323.53C1179.65 1323.53 1182.55 1322.42 1184.54 1320.19C1186.61 1317.88 1187.64 1314.62 1187.64 1310.41V1277.71H1200.76V1311C1200.76 1316.01 1199.69 1320.43 1197.54 1324.25C1195.47 1327.98 1192.57 1330.93 1188.83 1333.08C1185.09 1335.14 1180.76 1336.18 1175.83 1336.18ZM1237.94 1336.18C1232.77 1336.18 1228.08 1334.87 1223.86 1332.24C1219.73 1329.62 1216.43 1326.08 1213.96 1321.62C1211.57 1317.09 1210.38 1312.04 1210.38 1306.47C1210.38 1300.82 1211.57 1295.77 1213.96 1291.32C1216.43 1286.78 1219.73 1283.2 1223.86 1280.58C1228.08 1277.87 1232.77 1276.52 1237.94 1276.52C1242.32 1276.52 1246.17 1277.48 1249.52 1279.38C1252.94 1281.21 1255.64 1283.76 1257.63 1287.02C1259.62 1290.28 1260.61 1293.98 1260.61 1298.12V1314.58C1260.61 1318.72 1259.62 1322.42 1257.63 1325.68C1255.72 1328.94 1253.06 1331.52 1249.63 1333.43C1246.21 1335.26 1242.32 1336.18 1237.94 1336.18ZM1240.09 1323.77C1243.35 1323.77 1246.17 1323.05 1248.56 1321.62C1251.03 1320.11 1252.94 1318.04 1254.29 1315.42C1255.64 1312.79 1256.32 1309.77 1256.32 1306.35C1256.32 1302.93 1255.64 1299.91 1254.29 1297.28C1252.94 1294.66 1251.03 1292.63 1248.56 1291.2C1246.17 1289.69 1243.39 1288.93 1240.21 1288.93C1236.95 1288.93 1234.08 1289.69 1231.62 1291.2C1229.23 1292.63 1227.32 1294.66 1225.89 1297.28C1224.54 1299.91 1223.86 1302.93 1223.86 1306.35C1223.86 1309.77 1224.54 1312.79 1225.89 1315.42C1227.32 1318.04 1229.23 1320.11 1231.62 1321.62C1234.08 1323.05 1236.91 1323.77 1240.09 1323.77ZM1268.61 1334.98H1255.48V1319.59L1257.75 1305.63L1255.48 1291.79V1249.08H1268.61V1334.98ZM1301.66 1335.58L1277.21 1277.71H1291.64L1308.35 1320.19H1304.17L1321.83 1277.71H1336.38L1309.78 1335.58H1301.66ZM1284.6 1358.85L1302.38 1322.22L1309.78 1335.58L1299.16 1358.85H1284.6ZM1377.52 1334.98V1253.85H1390.64V1334.98H1377.52ZM1363.8 1289.65V1277.71H1404.37V1289.65H1363.8ZM1414.02 1334.98V1277.71H1427.15V1334.98H1414.02ZM1420.58 1267.22C1418.36 1267.22 1416.49 1266.46 1414.98 1264.95C1413.54 1263.44 1412.83 1261.57 1412.83 1259.34C1412.83 1257.11 1413.54 1255.24 1414.98 1253.73C1416.49 1252.22 1418.36 1251.47 1420.58 1251.47C1422.89 1251.47 1424.76 1252.22 1426.19 1253.73C1427.62 1255.24 1428.34 1257.11 1428.34 1259.34C1428.34 1261.57 1427.62 1263.44 1426.19 1264.95C1424.76 1266.46 1422.89 1267.22 1420.58 1267.22ZM1441.87 1334.98V1277.71H1454.99V1334.98H1441.87ZM1479.93 1334.98V1300.86C1479.93 1297.04 1478.73 1294.1 1476.35 1292.03C1473.96 1289.88 1471.02 1288.81 1467.52 1288.81C1465.13 1288.81 1462.98 1289.29 1461.07 1290.24C1459.25 1291.2 1457.77 1292.59 1456.66 1294.42C1455.55 1296.17 1454.99 1298.32 1454.99 1300.86L1449.86 1298C1449.86 1293.62 1450.81 1289.84 1452.72 1286.66C1454.63 1283.48 1457.22 1281.02 1460.48 1279.27C1463.74 1277.44 1467.4 1276.52 1471.46 1276.52C1475.51 1276.52 1479.17 1277.4 1482.43 1279.15C1485.69 1280.9 1488.28 1283.36 1490.19 1286.54C1492.1 1289.73 1493.05 1293.54 1493.05 1298V1334.98H1479.93ZM1517.99 1334.98V1300.86C1517.99 1297.04 1516.79 1294.1 1514.41 1292.03C1512.02 1289.88 1509.08 1288.81 1505.58 1288.81C1503.27 1288.81 1501.16 1289.29 1499.25 1290.24C1497.35 1291.2 1495.83 1292.59 1494.72 1294.42C1493.61 1296.17 1493.05 1298.32 1493.05 1300.86L1485.65 1298C1486.05 1293.62 1487.32 1289.84 1489.47 1286.66C1491.62 1283.48 1494.36 1281.02 1497.7 1279.27C1501.12 1277.44 1504.86 1276.52 1508.92 1276.52C1513.06 1276.52 1516.79 1277.4 1520.13 1279.15C1523.48 1280.9 1526.14 1283.36 1528.13 1286.54C1530.12 1289.73 1531.11 1293.54 1531.11 1298V1334.98H1517.99ZM1571.24 1336.18C1565.51 1336.18 1560.34 1334.9 1555.73 1332.36C1551.19 1329.73 1547.58 1326.16 1544.87 1321.62C1542.25 1317.09 1540.93 1312 1540.93 1306.35C1540.93 1300.7 1542.25 1295.65 1544.87 1291.2C1547.5 1286.66 1551.04 1283.08 1555.49 1280.46C1560.02 1277.83 1565.03 1276.52 1570.52 1276.52C1575.85 1276.52 1580.55 1277.75 1584.6 1280.22C1588.74 1282.69 1591.96 1286.07 1594.27 1290.36C1596.65 1294.66 1597.85 1299.55 1597.85 1305.04C1597.85 1305.99 1597.77 1306.99 1597.61 1308.02C1597.53 1308.97 1597.37 1310.05 1597.13 1311.24H1550.12V1300.5H1590.33L1585.44 1304.8C1585.28 1301.3 1584.6 1298.36 1583.41 1295.97C1582.22 1293.58 1580.51 1291.75 1578.28 1290.48C1576.13 1289.21 1573.47 1288.57 1570.28 1288.57C1566.94 1288.57 1564.04 1289.29 1561.57 1290.72C1559.11 1292.15 1557.2 1294.18 1555.85 1296.8C1554.5 1299.35 1553.82 1302.41 1553.82 1305.99C1553.82 1309.57 1554.54 1312.71 1555.97 1315.42C1557.4 1318.12 1559.43 1320.23 1562.05 1321.74C1564.68 1323.17 1567.7 1323.89 1571.12 1323.89C1574.06 1323.89 1576.77 1323.37 1579.23 1322.34C1581.78 1321.3 1583.93 1319.79 1585.68 1317.8L1594.03 1326.27C1591.24 1329.54 1587.86 1332 1583.89 1333.67C1579.91 1335.34 1575.69 1336.18 1571.24 1336.18Z" fill="black"/>
<path d="M1161.79 705.453L1192.57 672.762C1195.11 670.057 1197.18 667.631 1198.77 665.484C1200.36 663.336 1201.52 661.308 1202.23 659.399C1202.95 657.49 1203.31 655.541 1203.31 653.552C1203.31 649.814 1202.07 646.911 1199.61 644.843C1197.22 642.695 1194.16 641.621 1190.42 641.621C1186.44 641.621 1182.94 642.615 1179.92 644.604C1176.9 646.592 1174.19 649.695 1171.81 653.91L1162.26 646.036C1165.52 640.388 1169.54 636.133 1174.31 633.269C1179.09 630.326 1184.61 628.855 1190.9 628.855C1196.07 628.855 1200.6 629.889 1204.5 631.957C1208.4 634.025 1211.42 636.928 1213.57 640.667C1215.71 644.326 1216.79 648.581 1216.79 653.433C1216.79 656.933 1216.35 660.075 1215.48 662.859C1214.68 665.563 1213.29 668.307 1211.3 671.091C1209.31 673.796 1206.57 676.977 1203.07 680.636L1179.44 705.095L1161.79 705.453ZM1161.79 713.566V705.453L1173.6 701.277H1218.46V713.566H1161.79ZM1226.34 705.453L1257.12 672.762C1259.66 670.057 1261.73 667.631 1263.32 665.484C1264.91 663.336 1266.07 661.308 1266.78 659.399C1267.5 657.49 1267.86 655.541 1267.86 653.552C1267.86 649.814 1266.62 646.911 1264.16 644.843C1261.77 642.695 1258.71 641.621 1254.97 641.621C1250.99 641.621 1247.49 642.615 1244.47 644.604C1241.45 646.592 1238.74 649.695 1236.36 653.91L1226.81 646.036C1230.07 640.388 1234.09 636.133 1238.86 633.269C1243.64 630.326 1249.16 628.855 1255.45 628.855C1260.62 628.855 1265.15 629.889 1269.05 631.957C1272.95 634.025 1275.97 636.928 1278.12 640.667C1280.26 644.326 1281.34 648.581 1281.34 653.433C1281.34 656.933 1280.9 660.075 1280.03 662.859C1279.23 665.563 1277.84 668.307 1275.85 671.091C1273.86 673.796 1271.12 676.977 1267.62 680.636L1243.99 705.095L1226.34 705.453ZM1226.34 713.566V705.453L1238.15 701.277H1283.01V713.566H1226.34ZM1303.65 714.76C1301.11 714.76 1299 713.924 1297.33 712.254C1295.74 710.504 1294.94 708.396 1294.94 705.93C1294.94 703.385 1295.74 701.277 1297.33 699.607C1299 697.937 1301.11 697.101 1303.65 697.101C1306.2 697.101 1308.27 697.937 1309.86 699.607C1311.53 701.277 1312.36 703.385 1312.36 705.93C1312.36 708.396 1311.53 710.504 1309.86 712.254C1308.27 713.924 1306.2 714.76 1303.65 714.76ZM1303.65 677.892C1301.11 677.892 1299 677.057 1297.33 675.386C1295.74 673.637 1294.94 671.529 1294.94 669.063C1294.94 666.518 1295.74 664.41 1297.33 662.739C1299 661.069 1301.11 660.234 1303.65 660.234C1306.2 660.234 1308.27 661.069 1309.86 662.739C1311.53 664.41 1312.36 666.518 1312.36 669.063C1312.36 671.529 1311.53 673.637 1309.86 675.386C1308.27 677.057 1306.2 677.892 1303.65 677.892ZM1359.19 714.76C1352.91 714.76 1347.14 713.01 1341.89 709.51C1336.72 705.93 1332.58 700.919 1329.48 694.476C1326.38 688.034 1324.83 680.437 1324.83 671.688C1324.83 662.938 1326.34 655.382 1329.36 649.018C1332.46 642.576 1336.6 637.604 1341.77 634.104C1346.94 630.605 1352.67 628.855 1358.95 628.855C1365.31 628.855 1371.08 630.605 1376.25 634.104C1381.42 637.604 1385.52 642.576 1388.54 649.018C1391.64 655.382 1393.19 662.978 1393.19 671.807C1393.19 680.557 1391.64 688.153 1388.54 694.596C1385.52 701.039 1381.42 706.01 1376.25 709.51C1371.16 713.01 1365.47 714.76 1359.19 714.76ZM1358.95 701.874C1363.09 701.874 1366.67 700.76 1369.69 698.533C1372.71 696.306 1375.06 692.965 1376.73 688.511C1378.48 684.057 1379.35 678.449 1379.35 671.688C1379.35 665.006 1378.48 659.438 1376.73 654.984C1375.06 650.53 1372.67 647.229 1369.57 645.081C1366.55 642.854 1363.01 641.74 1358.95 641.74C1354.89 641.74 1351.32 642.854 1348.21 645.081C1345.19 647.229 1342.84 650.53 1341.17 654.984C1339.5 659.359 1338.67 664.927 1338.67 671.688C1338.67 678.449 1339.5 684.057 1341.17 688.511C1342.84 692.965 1345.19 696.306 1348.21 698.533C1351.32 700.76 1354.89 701.874 1358.95 701.874ZM1437.37 714.76C1431.09 714.76 1425.32 713.01 1420.07 709.51C1414.9 705.93 1410.77 700.919 1407.66 694.476C1404.56 688.034 1403.01 680.437 1403.01 671.688C1403.01 662.938 1404.52 655.382 1407.54 649.018C1410.65 642.576 1414.78 637.604 1419.95 634.104C1425.12 630.605 1430.85 628.855 1437.13 628.855C1443.5 628.855 1449.26 630.605 1454.43 634.104C1459.6 637.604 1463.7 642.576 1466.72 649.018C1469.82 655.382 1471.38 662.978 1471.38 671.807C1471.38 680.557 1469.82 688.153 1466.72 694.596C1463.7 701.039 1459.6 706.01 1454.43 709.51C1449.34 713.01 1443.66 714.76 1437.37 714.76ZM1437.13 701.874C1441.27 701.874 1444.85 700.76 1447.87 698.533C1450.89 696.306 1453.24 692.965 1454.91 688.511C1456.66 684.057 1457.54 678.449 1457.54 671.688C1457.54 665.006 1456.66 659.438 1454.91 654.984C1453.24 650.53 1450.85 647.229 1447.75 645.081C1444.73 642.854 1441.19 641.74 1437.13 641.74C1433.08 641.74 1429.5 642.854 1426.4 645.081C1423.37 647.229 1421.03 650.53 1419.36 654.984C1417.69 659.359 1416.85 664.927 1416.85 671.688C1416.85 678.449 1417.69 684.057 1419.36 688.511C1421.03 692.965 1423.37 696.306 1426.4 698.533C1429.5 700.76 1433.08 701.874 1437.13 701.874Z" fill="black"/>
<rect x="562.967" y="1521.73" width="733.273" height="199.427" rx="62.1418" fill="#D9D9D9"/>
<path d="M836.09 1629.69V1620.86H849.055C850.752 1620.86 852.29 1620.52 853.669 1619.83C855.047 1619.14 856.135 1618.16 856.93 1616.88C857.725 1615.56 858.123 1613.97 858.123 1612.11C858.123 1610.31 857.725 1608.74 856.93 1607.42C856.135 1606.09 855.047 1605.08 853.669 1604.39C852.29 1603.71 850.752 1603.36 849.055 1603.36H836.09V1594.53H850.169C853.722 1594.53 856.903 1595.25 859.714 1596.68C862.577 1598.11 864.831 1600.15 866.475 1602.8C868.119 1605.4 868.941 1608.5 868.941 1612.11C868.941 1615.72 868.119 1618.84 866.475 1621.5C864.831 1624.09 862.577 1626.11 859.714 1627.54C856.903 1628.97 853.722 1629.69 850.169 1629.69H836.09ZM828.136 1650.45V1594.53H838.954V1650.45H828.136ZM890.317 1651.24C886.818 1651.24 883.663 1650.37 880.852 1648.62C878.042 1646.87 875.841 1644.48 874.25 1641.46C872.659 1638.44 871.864 1635.04 871.864 1631.28C871.864 1627.46 872.659 1624.04 874.25 1621.02C875.841 1618 878.042 1615.61 880.852 1613.86C883.663 1612.11 886.818 1611.24 890.317 1611.24C893.075 1611.24 895.541 1611.79 897.715 1612.91C899.889 1614.02 901.612 1615.58 902.885 1617.6C904.211 1619.56 904.927 1621.79 905.033 1624.28V1638.12C904.927 1640.67 904.211 1642.92 902.885 1644.88C901.612 1646.84 899.889 1648.41 897.715 1649.57C895.541 1650.69 893.075 1651.24 890.317 1651.24ZM892.226 1641.62C895.143 1641.62 897.503 1640.67 899.306 1638.76C901.109 1636.79 902.01 1634.28 902.01 1631.2C902.01 1629.19 901.586 1627.41 900.737 1625.87C899.942 1624.28 898.802 1623.06 897.317 1622.21C895.885 1621.31 894.189 1620.86 892.226 1620.86C890.317 1620.86 888.621 1621.31 887.136 1622.21C885.704 1623.06 884.564 1624.28 883.716 1625.87C882.92 1627.41 882.522 1629.19 882.522 1631.2C882.522 1633.27 882.92 1635.1 883.716 1636.69C884.564 1638.23 885.704 1639.45 887.136 1640.35C888.621 1641.2 890.317 1641.62 892.226 1641.62ZM901.453 1650.45V1640.11L903.124 1630.72L901.453 1621.5V1612.03H911.794V1650.45H901.453ZM937.397 1651.24C934.004 1651.24 930.981 1650.53 928.33 1649.1C925.731 1647.67 923.69 1645.68 922.205 1643.13C920.72 1640.59 919.978 1637.64 919.978 1634.3V1612.03H930.477V1634.06C930.477 1635.65 930.742 1637.03 931.273 1638.2C931.803 1639.31 932.598 1640.16 933.659 1640.75C934.719 1641.33 935.966 1641.62 937.397 1641.62C939.571 1641.62 941.268 1640.96 942.488 1639.63C943.708 1638.31 944.317 1636.45 944.317 1634.06V1612.03H954.737V1634.3C954.737 1637.7 953.995 1640.67 952.51 1643.21C951.078 1645.76 949.037 1647.74 946.386 1649.18C943.787 1650.56 940.791 1651.24 937.397 1651.24ZM976.239 1651.32C974.065 1651.32 971.917 1651.03 969.796 1650.45C967.728 1649.87 965.819 1649.07 964.069 1648.06C962.319 1647 960.808 1645.73 959.535 1644.24L965.74 1637.96C967.065 1639.45 968.603 1640.56 970.353 1641.3C972.103 1642.04 974.038 1642.42 976.16 1642.42C977.856 1642.42 979.129 1642.18 979.977 1641.7C980.879 1641.22 981.33 1640.51 981.33 1639.55C981.33 1638.49 980.852 1637.67 979.898 1637.09C978.996 1636.5 977.803 1636.03 976.319 1635.65C974.834 1635.23 973.269 1634.78 971.626 1634.3C970.035 1633.77 968.497 1633.11 967.012 1632.31C965.527 1631.47 964.308 1630.33 963.353 1628.89C962.452 1627.41 962.001 1625.5 962.001 1623.17C962.001 1620.73 962.584 1618.61 963.751 1616.8C964.971 1615 966.694 1613.59 968.921 1612.59C971.148 1611.58 973.773 1611.08 976.796 1611.08C979.977 1611.08 982.841 1611.63 985.386 1612.75C987.985 1613.86 990.132 1615.53 991.829 1617.76L985.545 1624.04C984.379 1622.61 983.053 1621.58 981.568 1620.94C980.137 1620.3 978.572 1619.98 976.875 1619.98C975.338 1619.98 974.144 1620.22 973.296 1620.7C972.501 1621.18 972.103 1621.84 972.103 1622.69C972.103 1623.64 972.554 1624.39 973.455 1624.92C974.41 1625.45 975.629 1625.92 977.114 1626.35C978.599 1626.72 980.137 1627.17 981.727 1627.7C983.371 1628.18 984.909 1628.87 986.341 1629.77C987.826 1630.67 989.019 1631.86 989.92 1633.35C990.875 1634.83 991.352 1636.74 991.352 1639.07C991.352 1642.84 990 1645.84 987.295 1648.06C984.591 1650.24 980.905 1651.32 976.239 1651.32ZM1016.75 1651.24C1012.72 1651.24 1009.14 1650.4 1006.01 1648.7C1002.89 1646.95 1000.39 1644.56 998.537 1641.54C996.734 1638.52 995.833 1635.07 995.833 1631.2C995.833 1627.38 996.708 1623.99 998.458 1621.02C1000.26 1618 1002.7 1615.61 1005.78 1613.86C1008.85 1612.06 1012.27 1611.16 1016.04 1611.16C1019.75 1611.16 1023.01 1612 1025.82 1613.7C1028.68 1615.34 1030.91 1617.63 1032.5 1620.54C1034.15 1623.41 1034.97 1626.67 1034.97 1630.33C1034.97 1631.01 1034.91 1631.73 1034.81 1632.47C1034.76 1633.16 1034.62 1633.96 1034.41 1634.86L1002.12 1634.94V1627.14L1029.56 1627.06L1025.34 1630.33C1025.24 1628.05 1024.81 1626.14 1024.07 1624.6C1023.38 1623.06 1022.35 1621.89 1020.97 1621.1C1019.64 1620.25 1018 1619.83 1016.04 1619.83C1013.97 1619.83 1012.17 1620.3 1010.63 1621.26C1009.09 1622.16 1007.9 1623.46 1007.05 1625.16C1006.25 1626.8 1005.86 1628.76 1005.86 1631.04C1005.86 1633.37 1006.28 1635.42 1007.13 1637.17C1008.03 1638.86 1009.3 1640.19 1010.95 1641.14C1012.59 1642.04 1014.5 1642.5 1016.67 1642.5C1018.63 1642.5 1020.41 1642.18 1022 1641.54C1023.59 1640.85 1024.97 1639.84 1026.14 1638.52L1032.26 1644.64C1030.41 1646.82 1028.13 1648.46 1025.42 1649.57C1022.77 1650.69 1019.88 1651.24 1016.75 1651.24Z" fill="#626262"/>
<rect x="1348.45" y="1521.73" width="733.273" height="199.427" rx="62.1418" fill="#BA362B"/>
<path d="M1558.62 1650.45V1594.53H1569.44V1650.45H1558.62ZM1605.65 1650.45V1628.42C1605.65 1626.14 1604.93 1624.28 1603.5 1622.85C1602.07 1621.42 1600.21 1620.7 1597.93 1620.7C1596.45 1620.7 1595.12 1621.02 1593.96 1621.66C1592.79 1622.29 1591.86 1623.19 1591.17 1624.36C1590.54 1625.53 1590.22 1626.88 1590.22 1628.42L1586.16 1626.35C1586.16 1623.33 1586.8 1620.7 1588.07 1618.47C1589.4 1616.19 1591.2 1614.42 1593.48 1613.14C1595.81 1611.87 1598.44 1611.24 1601.35 1611.24C1604.16 1611.24 1606.68 1611.95 1608.91 1613.38C1611.14 1614.76 1612.89 1616.59 1614.16 1618.87C1615.43 1621.1 1616.07 1623.51 1616.07 1626.11V1650.45H1605.65ZM1579.8 1650.45V1612.03H1590.22V1650.45H1579.8ZM1629.64 1650.45V1596.04H1640.06V1650.45H1629.64ZM1620.66 1621.18V1612.03H1649.05V1621.18H1620.66ZM1672.35 1651.24C1668.32 1651.24 1664.75 1650.4 1661.62 1648.7C1658.49 1646.95 1656 1644.56 1654.14 1641.54C1652.34 1638.52 1651.44 1635.07 1651.44 1631.2C1651.44 1627.38 1652.31 1623.99 1654.06 1621.02C1655.86 1618 1658.3 1615.61 1661.38 1613.86C1664.45 1612.06 1667.87 1611.16 1671.64 1611.16C1675.35 1611.16 1678.61 1612 1681.42 1613.7C1684.29 1615.34 1686.51 1617.63 1688.1 1620.54C1689.75 1623.41 1690.57 1626.67 1690.57 1630.33C1690.57 1631.01 1690.52 1631.73 1690.41 1632.47C1690.36 1633.16 1690.22 1633.96 1690.01 1634.86L1657.72 1634.94V1627.14L1685.16 1627.06L1680.95 1630.33C1680.84 1628.05 1680.41 1626.14 1679.67 1624.6C1678.98 1623.06 1677.95 1621.89 1676.57 1621.1C1675.24 1620.25 1673.6 1619.83 1671.64 1619.83C1669.57 1619.83 1667.77 1620.3 1666.23 1621.26C1664.69 1622.16 1663.5 1623.46 1662.65 1625.16C1661.86 1626.8 1661.46 1628.76 1661.46 1631.04C1661.46 1633.37 1661.88 1635.42 1662.73 1637.17C1663.63 1638.86 1664.9 1640.19 1666.55 1641.14C1668.19 1642.04 1670.1 1642.5 1672.28 1642.5C1674.24 1642.5 1676.01 1642.18 1677.6 1641.54C1679.2 1640.85 1680.57 1639.84 1681.74 1638.52L1687.87 1644.64C1686.01 1646.82 1683.73 1648.46 1681.02 1649.57C1678.37 1650.69 1675.48 1651.24 1672.35 1651.24ZM1697.01 1650.45V1612.03H1707.43V1650.45H1697.01ZM1707.43 1629.21L1703.38 1626.51C1703.85 1621.79 1705.23 1618.08 1707.51 1615.37C1709.79 1612.61 1713.08 1611.24 1717.38 1611.24C1719.23 1611.24 1720.9 1611.55 1722.39 1612.19C1723.87 1612.77 1725.22 1613.75 1726.44 1615.13L1719.92 1622.61C1719.34 1621.97 1718.62 1621.5 1717.77 1621.18C1716.98 1620.86 1716.05 1620.7 1714.99 1620.7C1712.76 1620.7 1710.93 1621.42 1709.5 1622.85C1708.12 1624.23 1707.43 1626.35 1707.43 1629.21ZM1730.03 1650.45V1612.03H1740.45V1650.45H1730.03ZM1740.45 1629.21L1736.39 1626.51C1736.87 1621.79 1738.25 1618.08 1740.53 1615.37C1742.81 1612.61 1746.09 1611.24 1750.39 1611.24C1752.25 1611.24 1753.92 1611.55 1755.4 1612.19C1756.89 1612.77 1758.24 1613.75 1759.46 1615.13L1752.93 1622.61C1752.35 1621.97 1751.64 1621.5 1750.79 1621.18C1749.99 1620.86 1749.06 1620.7 1748 1620.7C1745.78 1620.7 1743.95 1621.42 1742.51 1622.85C1741.14 1624.23 1740.45 1626.35 1740.45 1629.21ZM1779.5 1651.24C1776.11 1651.24 1773.09 1650.53 1770.43 1649.1C1767.84 1647.67 1765.79 1645.68 1764.31 1643.13C1762.83 1640.59 1762.08 1637.64 1762.08 1634.3V1612.03H1772.58V1634.06C1772.58 1635.65 1772.85 1637.03 1773.38 1638.2C1773.91 1639.31 1774.7 1640.16 1775.76 1640.75C1776.82 1641.33 1778.07 1641.62 1779.5 1641.62C1781.68 1641.62 1783.37 1640.96 1784.59 1639.63C1785.81 1638.31 1786.42 1636.45 1786.42 1634.06V1612.03H1796.84V1634.3C1796.84 1637.7 1796.1 1640.67 1794.62 1643.21C1793.18 1645.76 1791.14 1647.74 1788.49 1649.18C1785.89 1650.56 1782.9 1651.24 1779.5 1651.24ZM1826.46 1651.24C1823.7 1651.24 1821.21 1650.69 1818.98 1649.57C1816.75 1648.41 1814.98 1646.84 1813.65 1644.88C1812.33 1642.92 1811.61 1640.67 1811.5 1638.12V1624.52C1811.61 1621.97 1812.33 1619.72 1813.65 1617.76C1815.03 1615.74 1816.81 1614.15 1818.98 1612.99C1821.21 1611.82 1823.7 1611.24 1826.46 1611.24C1830.01 1611.24 1833.19 1612.11 1836 1613.86C1838.81 1615.61 1841.01 1618 1842.6 1621.02C1844.25 1624.04 1845.07 1627.46 1845.07 1631.28C1845.07 1635.04 1844.25 1638.44 1842.6 1641.46C1841.01 1644.48 1838.81 1646.87 1836 1648.62C1833.19 1650.37 1830.01 1651.24 1826.46 1651.24ZM1805.14 1666.52V1612.03H1815.56V1622.13L1813.81 1631.44L1815.48 1640.75V1666.52H1805.14ZM1824.63 1641.62C1826.54 1641.62 1828.23 1641.2 1829.72 1640.35C1831.2 1639.45 1832.34 1638.23 1833.14 1636.69C1833.99 1635.1 1834.41 1633.27 1834.41 1631.2C1834.41 1629.19 1833.99 1627.41 1833.14 1625.87C1832.34 1624.28 1831.2 1623.06 1829.72 1622.21C1828.23 1621.31 1826.54 1620.86 1824.63 1620.86C1822.77 1620.86 1821.1 1621.31 1819.62 1622.21C1818.13 1623.06 1816.97 1624.28 1816.12 1625.87C1815.32 1627.41 1814.92 1629.19 1814.92 1631.2C1814.92 1633.27 1815.32 1635.1 1816.12 1636.69C1816.97 1638.23 1818.11 1639.45 1819.54 1640.35C1821.02 1641.2 1822.72 1641.62 1824.63 1641.62ZM1856.62 1650.45V1596.04H1867.04V1650.45H1856.62ZM1847.63 1621.18V1612.03H1876.03V1621.18H1847.63Z" fill="#FFC1BC"/>
<path d="M1729 669.688C1729 896.4 1545.21 1080.19 1318.5 1080.19C1091.79 1080.19 908 896.4 908 669.688C908 442.975 1091.79 259.188 1318.5 259.188C1545.21 259.188 1729 442.975 1729 669.688ZM949.21 669.688C949.21 873.641 1114.55 1038.98 1318.5 1038.98C1522.45 1038.98 1687.79 873.641 1687.79 669.688C1687.79 465.734 1522.45 300.397 1318.5 300.397C1114.55 300.397 949.21 465.734 949.21 669.688Z" fill="#DFEBFF"/>
<path d="M1708.16 669.136C1719.53 669.136 1728.8 678.36 1728.23 689.715C1724.52 763.609 1700.87 835.265 1659.63 896.995C1614.56 964.442 1550.51 1017.01 1475.56 1048.05C1400.62 1079.09 1318.16 1087.22 1238.6 1071.39C1159.04 1055.57 1085.96 1016.5 1028.6 959.146C971.244 901.787 932.182 828.708 916.357 749.149C900.532 669.591 908.654 587.126 939.696 512.184C970.738 437.241 1023.31 373.187 1090.75 328.12C1152.48 286.874 1224.14 263.228 1298.03 259.516C1309.39 258.946 1318.61 268.217 1318.61 279.587C1318.61 290.956 1309.39 300.113 1298.04 300.747C1232.29 304.419 1168.59 325.633 1113.63 362.355C1052.95 402.897 1005.66 460.521 977.735 527.94C949.81 595.359 942.503 669.545 956.739 741.117C970.976 812.689 1006.12 878.432 1057.72 930.032C1109.32 981.632 1175.06 1016.77 1246.63 1031.01C1318.2 1045.25 1392.39 1037.94 1459.81 1010.01C1527.23 982.087 1584.85 934.796 1625.39 874.12C1662.12 819.162 1683.33 755.458 1687 689.712C1687.63 678.36 1696.79 669.136 1708.16 669.136Z" fill="#1A67E7"/>
</svg>
